<?xml version="1.0" encoding="UTF-8" standalone="no"?>
<!-- Created with Inkscape (http://www.inkscape.org/) -->

<svg
   xmlns:dc="http://purl.org/dc/elements/1.1/"
   xmlns:cc="http://creativecommons.org/ns#"
   xmlns:rdf="http://www.w3.org/1999/02/22-rdf-syntax-ns#"
   xmlns:svg="http://www.w3.org/2000/svg"
   xmlns="http://www.w3.org/2000/svg"
   xmlns:sodipodi="http://sodipodi.sourceforge.net/DTD/sodipodi-0.dtd"
   xmlns:inkscape="http://www.inkscape.org/namespaces/inkscape"
   width="72mm"
   height="12mm"
   viewBox="0 0 72 12"
   version="1.1"
   id="svg8"
   inkscape:version="0.92.3 (unknown)"
   sodipodi:docname="logo.svg">
  <defs
     id="defs2" />
  <sodipodi:namedview
     id="base"
     pagecolor="#ffffff"
     bordercolor="#666666"
     borderopacity="1.0"
     inkscape:pageopacity="0.0"
     inkscape:pageshadow="2"
     inkscape:zoom="1.4"
     inkscape:cx="297.9228"
     inkscape:cy="56.086606"
     inkscape:document-units="mm"
     inkscape:current-layer="layer1"
     showgrid="false"
     inkscape:window-width="1680"
     inkscape:window-height="1000"
     inkscape:window-x="0"
     inkscape:window-y="0"
     inkscape:window-maximized="1" />
  <metadata
     id="metadata5">
    <rdf:RDF>
      <cc:Work
         rdf:about="">
        <dc:format>image/svg+xml</dc:format>
        <dc:type
           rdf:resource="http://purl.org/dc/dcmitype/StillImage" />
        <dc:title></dc:title>
      </cc:Work>
    </rdf:RDF>
  </metadata>
  <g
     inkscape:label="Layer 1"
     inkscape:groupmode="layer"
     id="layer1"
     transform="translate(0,-285)">
    <path
       style="fill:#ffffff;fill-opacity:1;stroke:none;stroke-width:0.26458332px;stroke-linecap:butt;stroke-linejoin:miter;stroke-opacity:1"
       d="m 58.877122,293.92584 -9.990288,-0.30921 -2.800768,-5.09515 10.964735,-0.49496 0.566963,1.79538 -3.204422,3.97191 -3.304712,0.0329 -3.318245,-3.34334 -1.704319,-1.96188"
       id="path1001"
       inkscape:connector-curvature="0" />
    <g
       id="g826"
       transform="matrix(0.65458333,0,0,0.55735546,-1.7891079,134.78501)">
      <path
         style="fill:#8df367;stroke-width:0.26458335"
         d="m 21.872873,289.23619 c -0.180525,-0.28907 -0.328228,-1.29417 -0.328228,-2.23356 v -1.70799 l -1.785937,0.14374 c -1.582327,0.12736 -1.891514,0.0717 -2.71198,-0.48828 -0.509322,-0.34762 -1.164166,-1.00996 -1.455208,-1.47187 -0.291042,-0.4619 -0.604019,-0.84442 -0.695505,-0.85002 -0.09149,-0.006 -0.316175,0.35155 -0.499309,0.79367 -0.49604,1.19755 -2.224147,2.1079 -3.987807,2.10074 -2.3845344,-0.01 -5.182756,-1.61219 -4.5552533,-2.60875 0.4085717,-0.64886 1.0516488,-0.66314 2.4659015,-0.0547 2.3030428,0.99075 4.2292648,0.52734 4.2292648,-1.01746 0,-0.98869 -0.316847,-1.20952 -2.6227615,-1.82797 -3.1549115,-0.84615 -4.1164986,-1.86546 -3.8797823,-4.11269 0.2172445,-2.06237 1.6123338,-3.14816 4.0449578,-3.14816 2.739394,0 5.151285,1.96417 3.394686,2.76453 -0.559838,0.25508 -0.857788,0.23114 -1.614543,-0.12973 -1.9071135,-0.90944 -3.8204741,-0.39748 -3.8204741,1.02226 0,0.7587 0.4021476,0.99766 2.6520181,1.57584 2.005362,0.51535 3.030074,1.10057 3.690855,2.10787 l 0.477109,0.72731 0.31033,-0.94031 c 0.377217,-1.14298 1.788493,-2.43506 3.035885,-2.77948 0.842772,-0.23271 2.622363,-0.039 2.986428,0.32507 0.08037,0.0804 0.376573,0.0228 0.658239,-0.12796 0.382771,-0.20486 0.674709,-0.16755 1.155837,0.1477 l 0.643716,0.42178 v 5.52851 c 0,3.04068 -0.07227,5.71684 -0.160599,5.94702 -0.225572,0.58783 -1.235347,0.52142 -1.62784,-0.10706 z m -0.977659,-6.47385 c 1.377966,-1.37797 0.38449,-3.63682 -1.599527,-3.63682 -0.797633,0 -1.18105,0.16382 -1.644546,0.70267 -1.272361,1.47921 -0.30664,3.58358 1.644546,3.58358 0.655965,0 1.151145,-0.20105 1.599527,-0.64943 z m 55.682766,4.69037 c -0.218281,-0.0828 -1.081484,-0.85491 -1.918229,-1.71571 l -1.521354,-1.5651 v -4.16995 -4.16995 l -0.926042,-1.3025 c -1.084352,-1.52517 -1.136041,-1.84765 -0.330729,-2.06347 0.327422,-0.0877 5.095333,-0.16116 10.595359,-0.16315 l 10.000049,-0.004 0.619366,0.69152 c 0.340651,0.38034 0.793596,0.88636 1.006544,1.12448 0.212947,0.23813 0.643196,0.64015 0.956109,0.89339 0.547999,0.44349 0.568928,0.65582 0.568928,5.77208 0,2.95876 -0.114729,5.52602 -0.258998,5.79559 -0.508098,0.94939 -1.672683,1.06944 -10.165379,1.04788 -4.525812,-0.0115 -8.407343,-0.0887 -8.625624,-0.1715 z m 10.146287,-7.17565 c 2.493431,-2.50118 2.84996,-2.96883 2.773614,-3.63802 -0.07259,-0.63621 -0.223732,-0.78095 -0.881359,-0.84401 -0.683085,-0.0655 -1.087993,0.22038 -2.904209,2.05052 -1.160754,1.16965 -2.224916,2.12663 -2.364807,2.12663 -0.13989,0 -1.347036,-1.07156 -2.682547,-2.38125 -1.33551,-1.30968 -2.563299,-2.38125 -2.728423,-2.38125 -0.452977,0 -1.358556,0.99853 -1.358556,1.498 0,0.61762 6.089836,6.41712 6.751387,6.42951 0.334205,0.006 1.603129,-1.06278 3.3949,-2.86013 z m -41.499413,5.10731 c -0.817954,-0.29451 -1.22365,-0.31411 -1.786175,-0.0863 -1.466911,0.59407 -1.521116,0.34588 -1.521116,-6.96468 0,-7.00891 0.06036,-7.35704 1.275709,-7.35704 0.732359,0 0.840957,0.46677 0.840957,3.61454 v 2.77751 l 0.859896,-0.21509 c 2.209136,-0.55256 4.188466,0.17843 5.108366,1.88658 0.276141,0.51276 0.564296,0.92771 0.640342,0.9221 0.07605,-0.006 0.376396,-0.38261 0.667438,-0.83778 1.085795,-1.69814 3.03203,-2.50648 4.835711,-2.00846 0.929179,0.25655 2.694093,1.751 3.060935,2.59185 0.149535,0.34275 0.196591,0.34458 0.345062,0.0134 0.435041,-0.97035 2.134788,-2.43527 3.06923,-2.6452 4.732756,-1.06327 7.380521,5.14764 3.359132,7.87958 -0.771219,0.52393 -1.165892,0.60374 -2.560791,0.51782 -1.389269,-0.0856 -1.778548,-0.22469 -2.471018,-0.88307 -0.452078,-0.42983 -0.999996,-1.12249 -1.217594,-1.53925 l -0.395635,-0.75774 -0.392816,0.75715 c -0.891865,1.71907 -2.095029,2.47812 -3.928049,2.47812 -0.669298,0 -1.553996,-0.17431 -1.965997,-0.38737 -0.7199,-0.37227 -1.91316,-1.60428 -2.242029,-2.31483 -0.124891,-0.26984 -0.192223,-0.26409 -0.32443,0.0277 -0.374843,0.82729 -2.009579,2.36697 -2.683742,2.52769 -0.396717,0.0946 -0.899896,0.21962 -1.118177,0.27788 -0.218282,0.0583 -0.873125,-0.0655 -1.455209,-0.27512 z m 2.657859,-2.62203 c 0.825241,-0.82524 0.847429,-2.01141 0.05412,-2.89316 -1.605786,-1.7848 -4.385363,-0.17709 -3.633349,2.10154 0.351975,1.06649 0.862462,1.42197 2.057874,1.433 0.580525,0.005 1.088967,-0.20899 1.521354,-0.64138 z m 8.73125,0 c 1.368441,-1.36844 0.379662,-3.58391 -1.599525,-3.58391 -1.224312,0 -2.248958,0.96438 -2.248958,2.11667 0,1.15229 1.024646,2.11667 2.248958,2.11667 0.655966,0 1.151146,-0.20105 1.599525,-0.64943 z m 8.303456,0.39496 c 0.805752,-0.43123 1.19815,-1.72525 0.808456,-2.66606 -0.396036,-0.95612 -0.978609,-1.31281 -2.144178,-1.31281 -1.831303,0 -2.716242,2.03652 -1.536597,3.5362 0.584417,0.74296 1.925127,0.94959 2.872319,0.44267 z m -38.795866,1.85268 c -1.401837,-0.85475 -1.755295,-1.87522 -1.695868,-4.89614 0.04837,-2.45883 0.212374,-3.03317 0.870374,-3.04802 0.09875,-0.002 0.366637,0.18305 0.595312,0.41172 0.302691,0.30269 0.415774,0.94567 0.415774,2.36403 0,1.07154 0.110561,2.23904 0.24569,2.59446 0.475748,1.25131 2.546831,1.39104 3.176598,0.21431 0.155033,-0.28969 0.281879,-1.46858 0.281879,-2.61975 0,-1.77688 0.08228,-2.16752 0.544655,-2.58596 0.416988,-0.37737 0.649555,-0.42692 0.992187,-0.21137 0.680367,0.42801 0.76819,4.899 0.121258,6.17323 -1.004345,1.97822 -3.669794,2.74861 -5.547859,1.60349 z m 8.360657,-0.079 c -1.3047,-0.86705 -2.163085,-2.66805 -1.973668,-4.14101 0.175094,-1.36155 1.140148,-2.74951 2.344918,-3.37252 0.926277,-0.479 2.786634,-0.55475 3.521673,-0.14341 0.309906,0.17344 0.670422,0.16749 1.077018,-0.0178 0.486601,-0.22171 0.719259,-0.18066 1.141421,0.20139 0.481581,0.43583 0.530241,0.81342 0.530241,4.11471 0,3.06133 -0.06565,3.66005 -0.416042,3.79451 -0.228825,0.0878 -0.653981,0.0323 -0.944795,-0.12333 -0.375621,-0.20103 -0.764636,-0.20075 -1.343232,9.5e-4 -1.353309,0.47177 -2.946778,0.34489 -3.937534,-0.31352 z m 3.976566,-2.21636 c 0.656119,-0.83412 0.704138,-1.87315 0.124796,-2.70027 -1.394783,-1.99134 -4.459312,-0.54517 -3.932029,1.85554 0.353174,1.60799 2.782814,2.14706 3.807233,0.84473 z"
         id="path840"
         inkscape:connector-curvature="0" />
      <path
         style="fill:#f2cf21;stroke-width:0.26458335"
         d="m 21.872873,289.23619 c -0.180525,-0.28907 -0.328228,-1.29417 -0.328228,-2.23356 v -1.70799 l -1.785937,0.14374 c -1.582327,0.12736 -1.891514,0.0717 -2.71198,-0.48828 -0.509322,-0.34762 -1.164166,-1.00996 -1.455208,-1.47187 -0.291042,-0.4619 -0.604019,-0.84442 -0.695505,-0.85002 -0.09149,-0.006 -0.316175,0.35155 -0.499309,0.79367 -0.49604,1.19755 -2.224147,2.1079 -3.987807,2.10074 -2.3845344,-0.01 -5.182756,-1.61219 -4.5552533,-2.60875 0.4085717,-0.64886 1.0516488,-0.66314 2.4659015,-0.0547 2.3030428,0.99075 4.2292648,0.52734 4.2292648,-1.01746 0,-0.98869 -0.316847,-1.20952 -2.6227615,-1.82797 -3.1549115,-0.84615 -4.1164986,-1.86546 -3.8797823,-4.11269 0.2172445,-2.06237 1.6123338,-3.14816 4.0449578,-3.14816 2.739394,0 5.151285,1.96417 3.394686,2.76453 -0.559838,0.25508 -0.857788,0.23114 -1.614543,-0.12973 -1.9071135,-0.90944 -3.8204741,-0.39748 -3.8204741,1.02226 0,0.7587 0.4021476,0.99766 2.6520181,1.57584 2.005362,0.51535 3.030074,1.10057 3.690855,2.10787 l 0.477109,0.72731 0.31033,-0.94031 c 0.377217,-1.14298 1.788493,-2.43506 3.035885,-2.77948 0.842772,-0.23271 2.622363,-0.039 2.986428,0.32507 0.08037,0.0804 0.376573,0.0228 0.658239,-0.12796 0.382771,-0.20486 0.674709,-0.16755 1.155837,0.1477 l 0.643716,0.42178 v 5.52851 c 0,3.04068 -0.07227,5.71684 -0.160599,5.94702 -0.225572,0.58783 -1.235347,0.52142 -1.62784,-0.10706 z m -0.977659,-6.47385 c 1.377966,-1.37797 0.38449,-3.63682 -1.599527,-3.63682 -0.797633,0 -1.18105,0.16382 -1.644546,0.70267 -1.272361,1.47921 -0.30664,3.58358 1.644546,3.58358 0.655965,0 1.151145,-0.20105 1.599527,-0.64943 z m 55.512639,4.62041 c -0.648187,-0.26158 -1.460328,-1.30618 -1.26333,-1.62493 0.07259,-0.11745 4.026451,-0.16776 8.786363,-0.11181 8.355391,0.0982 8.430432,0.0948 2.172095,-0.10037 -3.565261,-0.11115 -6.978352,-0.28834 -7.584647,-0.39375 l -1.102352,-0.19166 -0.162976,-2.29558 c -0.08964,-1.26258 -0.225951,-2.80161 -0.302921,-3.42007 -0.10881,-0.8743 -0.05382,-1.12448 0.24716,-1.12448 0.212908,0 1.576687,1.13109 3.030617,2.51354 1.453931,1.38245 2.866639,2.51354 3.139348,2.51354 0.278413,0 1.750483,-1.25855 3.357057,-2.87012 2.493431,-2.50118 2.84996,-2.96883 2.773614,-3.63802 -0.07259,-0.63621 -0.223732,-0.78095 -0.881359,-0.84401 -0.683085,-0.0655 -1.087993,0.22038 -2.904209,2.05052 -1.160754,1.16965 -2.246622,2.12663 -2.413043,2.12663 -0.16642,0 -1.393941,-1.1451 -2.727828,-2.54468 -2.225759,-2.33538 -2.489742,-2.53179 -3.209353,-2.38787 -0.773139,0.15463 -0.784109,0.14069 -0.784109,-0.99633 0,-0.96187 0.09875,-1.18539 0.595313,-1.34754 0.76431,-0.24957 14.274512,-0.50692 15.144816,-0.28849 1.322388,0.3319 1.498627,1.03957 1.534793,6.1628 l 0.03324,4.70941 0.08342,-4.43178 c 0.04588,-2.43747 0.177215,-4.43177 0.291859,-4.43177 0.114647,0 0.469022,0.24277 0.787503,0.53948 0.558454,0.52027 0.579057,0.72801 0.579057,5.83823 0,2.95035 -0.114787,5.51323 -0.258998,5.78269 -0.142449,0.26617 -0.636466,0.61553 -1.097815,0.77636 -1.008528,0.35157 -16.999919,0.37848 -17.863315,0.0301 z m 17.353344,-3.01168 c -0.06467,-0.0625 -0.343101,0.20204 -0.618725,0.58797 l -0.501134,0.70169 0.618728,-0.58797 c 0.340299,-0.32338 0.565809,-0.63914 0.501131,-0.70169 z m -48.536343,1.0133 c -0.817954,-0.29451 -1.22365,-0.31411 -1.786175,-0.0863 -1.466911,0.59407 -1.521116,0.34588 -1.521116,-6.96468 0,-7.00891 0.06036,-7.35704 1.275709,-7.35704 0.732359,0 0.840957,0.46677 0.840957,3.61454 v 2.77751 l 0.859896,-0.21509 c 2.209136,-0.55256 4.188466,0.17843 5.108366,1.88658 0.276141,0.51276 0.564296,0.92771 0.640342,0.9221 0.07605,-0.006 0.376396,-0.38261 0.667438,-0.83778 1.085795,-1.69814 3.03203,-2.50648 4.835711,-2.00846 0.929179,0.25655 2.694093,1.751 3.060935,2.59185 0.149535,0.34275 0.196591,0.34458 0.345062,0.0134 0.435041,-0.97035 2.134788,-2.43527 3.06923,-2.6452 4.732756,-1.06327 7.380521,5.14764 3.359132,7.87958 -0.771219,0.52393 -1.165892,0.60374 -2.560791,0.51782 -1.389269,-0.0856 -1.778548,-0.22469 -2.471018,-0.88307 -0.452078,-0.42983 -0.999996,-1.12249 -1.217594,-1.53925 l -0.395635,-0.75774 -0.392816,0.75715 c -0.891865,1.71907 -2.095029,2.47812 -3.928049,2.47812 -0.669298,0 -1.553996,-0.17431 -1.965997,-0.38737 -0.7199,-0.37227 -1.91316,-1.60428 -2.242029,-2.31483 -0.124891,-0.26984 -0.192223,-0.26409 -0.32443,0.0277 -0.374843,0.82729 -2.009579,2.36697 -2.683742,2.52769 -0.396717,0.0946 -0.899896,0.21962 -1.118177,0.27788 -0.218282,0.0583 -0.873125,-0.0655 -1.455209,-0.27512 z m 2.657859,-2.62203 c 0.825241,-0.82524 0.847429,-2.01141 0.05412,-2.89316 -1.605786,-1.7848 -4.385363,-0.17709 -3.633349,2.10154 0.351975,1.06649 0.862462,1.42197 2.057874,1.433 0.580525,0.005 1.088967,-0.20899 1.521354,-0.64138 z m 8.73125,0 c 1.368441,-1.36844 0.379662,-3.58391 -1.599525,-3.58391 -1.224312,0 -2.248958,0.96438 -2.248958,2.11667 0,1.15229 1.024646,2.11667 2.248958,2.11667 0.655966,0 1.151146,-0.20105 1.599525,-0.64943 z m 8.303456,0.39496 c 0.805752,-0.43123 1.19815,-1.72525 0.808456,-2.66606 -0.396036,-0.95612 -0.978609,-1.31281 -2.144178,-1.31281 -1.831303,0 -2.716242,2.03652 -1.536597,3.5362 0.584417,0.74296 1.925127,0.94959 2.872319,0.44267 z m -38.795866,1.85268 c -1.401837,-0.85475 -1.755295,-1.87522 -1.695868,-4.89614 0.04837,-2.45883 0.212374,-3.03317 0.870374,-3.04802 0.09875,-0.002 0.366637,0.18305 0.595312,0.41172 0.302691,0.30269 0.415774,0.94567 0.415774,2.36403 0,1.07154 0.110561,2.23904 0.24569,2.59446 0.475748,1.25131 2.546831,1.39104 3.176598,0.21431 0.155033,-0.28969 0.281879,-1.46858 0.281879,-2.61975 0,-1.77688 0.08228,-2.16752 0.544655,-2.58596 0.416988,-0.37737 0.649555,-0.42692 0.992187,-0.21137 0.680367,0.42801 0.76819,4.899 0.121258,6.17323 -1.004345,1.97822 -3.669794,2.74861 -5.547859,1.60349 z m 8.360657,-0.079 c -1.3047,-0.86705 -2.163085,-2.66805 -1.973668,-4.14101 0.175094,-1.36155 1.140148,-2.74951 2.344918,-3.37252 0.926277,-0.479 2.786634,-0.55475 3.521673,-0.14341 0.309906,0.17344 0.670422,0.16749 1.077018,-0.0178 0.486601,-0.22171 0.719259,-0.18066 1.141421,0.20139 0.481581,0.43583 0.530241,0.81342 0.530241,4.11471 0,3.06133 -0.06565,3.66005 -0.416042,3.79451 -0.228825,0.0878 -0.653981,0.0323 -0.944795,-0.12333 -0.375621,-0.20103 -0.764636,-0.20075 -1.343232,9.5e-4 -1.353309,0.47177 -2.946778,0.34489 -3.937534,-0.31352 z m 3.976566,-2.21636 c 0.656119,-0.83412 0.704138,-1.87315 0.124796,-2.70027 -1.394783,-1.99134 -4.459312,-0.54517 -3.932029,1.85554 0.353174,1.60799 2.782814,2.14706 3.807233,0.84473 z"
         id="path838"
         inkscape:connector-curvature="0" />
      <path
         style="fill:#a0a0a0;stroke-width:0.26458335"
         d="m 21.872873,289.23619 c -0.180525,-0.28907 -0.328228,-1.29417 -0.328228,-2.23356 v -1.70799 l -1.785937,0.14374 c -1.582327,0.12736 -1.891514,0.0717 -2.71198,-0.48828 -0.509322,-0.34762 -1.164166,-1.00996 -1.455208,-1.47187 -0.291042,-0.4619 -0.604019,-0.84442 -0.695505,-0.85002 -0.09149,-0.006 -0.316175,0.35155 -0.499309,0.79367 -0.49604,1.19755 -2.224147,2.1079 -3.987807,2.10074 -2.3845344,-0.01 -5.182756,-1.61219 -4.5552533,-2.60875 0.4085717,-0.64886 1.0516488,-0.66314 2.4659015,-0.0547 2.3030428,0.99075 4.2292648,0.52734 4.2292648,-1.01746 0,-0.98869 -0.316847,-1.20952 -2.6227615,-1.82797 -3.1549115,-0.84615 -4.1164986,-1.86546 -3.8797823,-4.11269 0.2172445,-2.06237 1.6123338,-3.14816 4.0449578,-3.14816 2.739394,0 5.151285,1.96417 3.394686,2.76453 -0.559838,0.25508 -0.857788,0.23114 -1.614543,-0.12973 -1.9071135,-0.90944 -3.8204741,-0.39748 -3.8204741,1.02226 0,0.7587 0.4021476,0.99766 2.6520181,1.57584 2.005362,0.51535 3.030074,1.10057 3.690855,2.10787 l 0.477109,0.72731 0.31033,-0.94031 c 0.377217,-1.14298 1.788493,-2.43506 3.035885,-2.77948 0.842772,-0.23271 2.622363,-0.039 2.986428,0.32507 0.08037,0.0804 0.376573,0.0228 0.658239,-0.12796 0.382771,-0.20486 0.674709,-0.16755 1.155837,0.1477 l 0.643716,0.42178 v 5.52851 c 0,3.04068 -0.07227,5.71684 -0.160599,5.94702 -0.225572,0.58783 -1.235347,0.52142 -1.62784,-0.10706 z m -0.977659,-6.47385 c 1.377966,-1.37797 0.38449,-3.63682 -1.599527,-3.63682 -0.797633,0 -1.18105,0.16382 -1.644546,0.70267 -1.272361,1.47921 -0.30664,3.58358 1.644546,3.58358 0.655965,0 1.151145,-0.20105 1.599527,-0.64943 z m 24.32964,2.62203 c -0.817954,-0.29451 -1.22365,-0.31411 -1.786175,-0.0863 -1.466911,0.59407 -1.521116,0.34588 -1.521116,-6.96468 0,-7.00891 0.06036,-7.35704 1.275709,-7.35704 0.732359,0 0.840957,0.46677 0.840957,3.61454 v 2.77751 l 0.859896,-0.21509 c 2.209136,-0.55256 4.188466,0.17843 5.108366,1.88658 0.276141,0.51276 0.564296,0.92771 0.640342,0.9221 0.07605,-0.006 0.376396,-0.38261 0.667438,-0.83778 1.085795,-1.69814 3.03203,-2.50648 4.835711,-2.00846 0.929179,0.25655 2.694093,1.751 3.060935,2.59185 0.149535,0.34275 0.196591,0.34458 0.345062,0.0134 0.435041,-0.97035 2.134788,-2.43527 3.06923,-2.6452 4.732756,-1.06327 7.380521,5.14764 3.359132,7.87958 -0.771219,0.52393 -1.165892,0.60374 -2.560791,0.51782 -1.389269,-0.0856 -1.778548,-0.22469 -2.471018,-0.88307 -0.452078,-0.42983 -0.999996,-1.12249 -1.217594,-1.53925 l -0.395635,-0.75774 -0.392816,0.75715 c -0.891865,1.71907 -2.095029,2.47812 -3.928049,2.47812 -0.669298,0 -1.553996,-0.17431 -1.965997,-0.38737 -0.7199,-0.37227 -1.91316,-1.60428 -2.242029,-2.31483 -0.124891,-0.26984 -0.192223,-0.26409 -0.32443,0.0277 -0.374843,0.82729 -2.009579,2.36697 -2.683742,2.52769 -0.396717,0.0946 -0.899896,0.21962 -1.118177,0.27788 -0.218282,0.0583 -0.873125,-0.0655 -1.455209,-0.27512 z m 2.657859,-2.62203 c 0.825241,-0.82524 0.847429,-2.01141 0.05412,-2.89316 -1.605786,-1.7848 -4.385363,-0.17709 -3.633349,2.10154 0.351975,1.06649 0.862462,1.42197 2.057874,1.433 0.580525,0.005 1.088967,-0.20899 1.521354,-0.64138 z m 8.73125,0 c 1.368441,-1.36844 0.379662,-3.58391 -1.599525,-3.58391 -1.224312,0 -2.248958,0.96438 -2.248958,2.11667 0,1.15229 1.024646,2.11667 2.248958,2.11667 0.655966,0 1.151146,-0.20105 1.599525,-0.64943 z m 8.303456,0.39496 c 0.805752,-0.43123 1.19815,-1.72525 0.808456,-2.66606 -0.396036,-0.95612 -0.978609,-1.31281 -2.144178,-1.31281 -1.831303,0 -2.716242,2.03652 -1.536597,3.5362 0.584417,0.74296 1.925127,0.94959 2.872319,0.44267 z m -38.795866,1.85268 c -1.401837,-0.85475 -1.755295,-1.87522 -1.695868,-4.89614 0.04837,-2.45883 0.212374,-3.03317 0.870374,-3.04802 0.09875,-0.002 0.366637,0.18305 0.595312,0.41172 0.302691,0.30269 0.415774,0.94567 0.415774,2.36403 0,1.07154 0.110561,2.23904 0.24569,2.59446 0.475748,1.25131 2.546831,1.39104 3.176598,0.21431 0.155033,-0.28969 0.281879,-1.46858 0.281879,-2.61975 0,-1.77688 0.08228,-2.16752 0.544655,-2.58596 0.416988,-0.37737 0.649555,-0.42692 0.992187,-0.21137 0.680367,0.42801 0.76819,4.899 0.121258,6.17323 -1.004345,1.97822 -3.669794,2.74861 -5.547859,1.60349 z m 8.360657,-0.079 c -1.3047,-0.86705 -2.163085,-2.66805 -1.973668,-4.14101 0.175094,-1.36155 1.140148,-2.74951 2.344918,-3.37252 0.926277,-0.479 2.786634,-0.55475 3.521673,-0.14341 0.309906,0.17344 0.670422,0.16749 1.077018,-0.0178 0.486601,-0.22171 0.719259,-0.18066 1.141421,0.20139 0.481581,0.43583 0.530241,0.81342 0.530241,4.11471 0,3.06133 -0.06565,3.66005 -0.416042,3.79451 -0.228825,0.0878 -0.653981,0.0323 -0.944795,-0.12333 -0.375621,-0.20103 -0.764636,-0.20075 -1.343232,9.5e-4 -1.353309,0.47177 -2.946778,0.34489 -3.937534,-0.31352 z m 3.976566,-2.21636 c 0.656119,-0.83412 0.704138,-1.87315 0.124796,-2.70027 -1.394783,-1.99134 -4.459312,-0.54517 -3.932029,1.85554 0.353174,1.60799 2.782814,2.14706 3.807233,0.84473 z m 42.352538,2.63594 c -0.654844,-0.047 -1.686433,-0.15101 -2.292419,-0.23117 l -1.101797,-0.14575 -0.163533,-2.3023 c -0.08995,-1.26626 -0.22651,-2.80831 -0.30348,-3.42677 -0.10881,-0.8743 -0.05382,-1.12448 0.24716,-1.12448 0.212908,0 1.576687,1.13109 3.030617,2.51354 1.453931,1.38245 2.866639,2.51354 3.139348,2.51354 0.278413,0 1.750483,-1.25855 3.357057,-2.87012 2.493431,-2.50118 2.84996,-2.96883 2.773614,-3.63802 -0.07259,-0.63621 -0.223732,-0.78095 -0.881359,-0.84401 -0.683085,-0.0655 -1.087993,0.22038 -2.904209,2.05052 -1.160754,1.16965 -2.246622,2.12663 -2.413043,2.12663 -0.16642,0 -1.393941,-1.1451 -2.727828,-2.54468 -2.225759,-2.33538 -2.489742,-2.53179 -3.209353,-2.38787 -0.773139,0.15463 -0.784109,0.14069 -0.784109,-0.99633 0,-0.96187 0.09875,-1.18539 0.595313,-1.34754 0.770353,-0.25154 14.27793,-0.50607 15.156371,-0.28559 0.367892,0.0923 0.873564,0.50373 1.123712,0.91422 0.402153,0.65992 0.439496,1.34525 0.322521,5.91919 -0.117768,4.60494 -0.187629,5.23391 -0.63632,5.72886 -0.483132,0.53295 -0.724437,0.55408 -5.820833,0.50977 -2.924242,-0.0254 -5.852587,-0.0847 -6.50743,-0.13164 z"
         id="path836"
         inkscape:connector-curvature="0" />
      <path
         style="fill:#71ea76;stroke-width:0.26458335"
         d="m 22.067263,289.08309 c -0.141919,-0.37328 -0.258034,-1.51826 -0.258034,-2.54441 0,-1.81258 -0.01695,-1.86051 -0.595313,-1.68295 -2.567384,0.78819 -4.40184,0.2085 -5.417364,-1.71188 -0.758412,-1.43418 -0.758412,-2.26332 0,-3.69749 0.820784,-1.55213 2.030656,-2.19287 3.763718,-1.99325 0.727604,0.0838 1.735484,0.15579 2.239733,0.15995 1.598634,0.0132 1.596726,0.006 1.596726,6.36027 0,5.63564 -0.01414,5.78844 -0.535716,5.78844 -0.331603,0 -0.634028,-0.25859 -0.79375,-0.67868 z m -1.723743,-5.55178 c 1.952634,-0.92659 1.888042,-3.78496 -0.104178,-4.61016 -1.0172,-0.42134 -2.004145,-0.17498 -2.818289,0.70349 -1.104451,1.19173 -0.67154,3.30149 0.809887,3.94695 1.027932,0.44787 1.086218,0.44676 2.11258,-0.0403 z m 60.467794,1.81926 c -0.654844,-0.047 -1.686433,-0.15101 -2.292419,-0.23117 l -1.101797,-0.14575 -0.163533,-2.3023 c -0.08995,-1.26626 -0.22651,-2.80831 -0.30348,-3.42677 -0.101523,-0.81576 -0.04594,-1.12448 0.202478,-1.12448 0.188333,0 1.55304,1.2065 3.03268,2.6811 2.26926,2.26154 2.788325,2.65649 3.316928,2.52382 0.901727,-0.22632 6.304976,-5.78144 6.304976,-6.4822 0,-0.5692 -1.089916,-1.49486 -1.562809,-1.32728 -0.141266,0.0501 -1.352531,1.09728 -2.691699,2.32716 l -2.434852,2.23613 -2.489814,-2.5972 c -2.280959,-2.37935 -2.55525,-2.58412 -3.269903,-2.44119 -0.768271,0.15365 -0.78009,0.13854 -0.78009,-0.99714 0,-0.96187 0.09875,-1.18539 0.595313,-1.34754 1.100815,-0.35945 14.429499,-0.48407 15.25383,-0.14262 1.208857,0.50072 1.348774,1.1856 1.348774,6.60206 0,4.63644 -0.03772,5.02691 -0.54837,5.67609 l -0.54837,0.69714 -5.338609,-0.0462 c -2.936235,-0.0254 -5.874391,-0.0847 -6.529234,-0.13164 z M 8.8446449,285.01643 c -0.9548688,-0.29151 -2.84638,-1.287 -3.0396762,-1.59976 -0.090839,-0.14698 0.1441079,-0.40815 0.5221053,-0.58038 0.5789166,-0.26377 0.8743751,-0.22223 1.8740807,0.26346 1.6538115,0.80349 3.3808293,0.77373 4.2273923,-0.0728 0.357187,-0.35719 0.649431,-0.84127 0.649431,-1.07573 0,-1.16919 -0.870215,-1.71135 -4.0543853,-2.52594 -2.3484486,-0.60079 -3.474632,-2.41908 -2.608813,-4.21207 1.001416,-2.0738 3.7258093,-2.7514 6.1308953,-1.52485 1.342203,0.6845 1.576596,1.10407 0.837707,1.49951 -0.399238,0.21366 -0.815284,0.14816 -1.785797,-0.28114 -1.548493,-0.68497 -2.8254444,-0.46261 -3.6391423,0.63371 l -0.5400348,0.72761 0.5419453,0.72587 c 0.405539,0.54318 1.0481648,0.86651 2.5531678,1.28461 2.235668,0.62107 3.187448,1.14482 3.649561,2.00829 0.445572,0.83256 0.381596,2.46925 -0.126852,3.24524 -0.900669,1.3746 -3.302126,2.06123 -5.1915851,1.4844 z m 17.8377951,0.005 c -0.30291,-0.13045 -0.868457,-0.61476 -1.25677,-1.07624 -0.666809,-0.79246 -0.706025,-0.99327 -0.706025,-3.61529 0,-2.72772 0.0104,-2.77475 0.595313,-2.69168 0.557598,0.0792 0.603693,0.24111 0.727604,2.55582 0.123279,2.30291 0.182867,2.51471 0.87465,3.10885 0.829149,0.71212 1.272037,0.78104 2.119307,0.32978 1.015179,-0.54068 1.222247,-1.07499 1.230962,-3.17629 0.0098,-2.35565 0.15259,-2.86591 0.802165,-2.86591 0.628469,0 0.79404,0.51599 0.792274,2.46904 -0.003,3.32123 -1.068113,4.94028 -3.359592,5.10685 -0.698028,0.0507 -1.516977,-0.0145 -1.819888,-0.14493 z m 8.488247,-0.0661 c -2.708182,-1.49416 -3.188362,-4.5063 -1.049014,-6.58041 0.890495,-0.86335 1.041087,-0.91365 2.584799,-0.86341 0.901568,0.0293 2.109052,0.0601 2.683296,0.0683 0.574243,0.008 1.137967,0.16284 1.25272,0.34353 0.11475,0.18069 0.210463,1.84657 0.21269,3.70196 0.0037,3.03948 -0.04179,3.37304 -0.45897,3.36939 -0.254661,-0.002 -0.627935,-0.1085 -0.829498,-0.23615 -0.225141,-0.14258 -0.706551,-0.09 -1.248272,0.13634 -1.04966,0.43858 -2.414818,0.46477 -3.147751,0.0604 z m 2.783422,-1.41449 c 2.811892,-1.45409 0.784749,-5.83147 -2.139577,-4.62017 -1.499952,0.6213 -2.005568,2.54246 -1.004175,3.81552 0.933973,1.18736 1.917083,1.43899 3.143752,0.80465 z m 4.525077,1.38457 c -0.392478,-0.39248 -0.413692,-12.70803 -0.02315,-13.43777 0.150641,-0.28147 0.507828,-0.51177 0.79375,-0.51177 0.490334,0 0.519859,0.1971 0.519859,3.47044 v 3.47044 l 0.595312,-0.19885 c 0.327422,-0.10936 1.190625,-0.25116 1.91823,-0.31509 1.071782,-0.0942 1.498711,0.002 2.248958,0.50399 2.42252,1.62255 2.422589,5.10772 1.35e-4,6.76126 -0.973108,0.66423 -2.711395,0.79526 -3.824145,0.28826 -0.491297,-0.22385 -0.844349,-0.2294 -1.302909,-0.0205 -0.456631,0.20805 -0.710403,0.20519 -0.926041,-0.0104 z m 4.673102,-1.26934 c 1.415849,-0.49356 2.100152,-2.33848 1.372016,-3.69902 -0.407337,-0.76111 -1.759895,-1.36883 -2.624077,-1.17903 -2.40729,0.52873 -2.69566,3.97713 -0.410789,4.91231 0.711941,0.29139 0.729752,0.29102 1.66285,-0.0343 z m 5.83896,1.07414 c -1.033965,-0.54628 -2.077852,-2.28609 -2.077852,-3.46306 0,-1.10734 1.112724,-2.93412 2.116667,-3.47496 1.391949,-0.74987 3.459967,-0.53015 4.536358,0.48198 1.702514,1.60086 1.932178,3.7976 0.566693,5.42039 -1.353133,1.6081 -3.311713,2.00259 -5.141866,1.03565 z m 3.071022,-1.19938 c 1.951297,-0.92595 1.930067,-3.55654 -0.03623,-4.48961 -1.706301,-0.80969 -3.535299,0.39183 -3.516728,2.31024 0.0099,1.02716 0.420484,1.63658 1.471848,2.18486 0.954217,0.49762 1.021249,0.49745 2.081112,-0.005 z m 5.75677,1.29252 c -1.889781,-0.93144 -2.711617,-3.53152 -1.700768,-5.38081 1.997289,-3.65394 7.461896,-2.29759 7.461896,1.85208 0,2.99293 -3.053546,4.86324 -5.761128,3.52873 z m 3.712586,-1.95485 c 0.922348,-0.99952 0.942607,-2.07151 0.05899,-3.12163 -0.846087,-1.00551 -1.942846,-1.26627 -3.008403,-0.71525 -0.963567,0.49828 -1.350071,1.14614 -1.350071,2.263 0,1.14744 0.425104,1.83071 1.409896,2.26614 1.103969,0.48812 1.997983,0.27394 2.889584,-0.69226 z"
         id="path834"
         inkscape:connector-curvature="0" />
      <path
         style="fill:#25d7a7;stroke-width:0.26458335"
         d="m 22.067263,289.08309 c -0.141919,-0.37328 -0.258034,-1.51826 -0.258034,-2.54441 0,-1.81258 -0.01695,-1.86051 -0.595313,-1.68295 -2.567384,0.78819 -4.40184,0.2085 -5.417364,-1.71188 -0.758412,-1.43418 -0.758412,-2.26332 0,-3.69749 0.820784,-1.55213 2.030656,-2.19287 3.763718,-1.99325 0.727604,0.0838 1.735484,0.15579 2.239733,0.15995 1.598634,0.0132 1.596726,0.006 1.596726,6.36027 0,5.63564 -0.01414,5.78844 -0.535716,5.78844 -0.331603,0 -0.634028,-0.25859 -0.79375,-0.67868 z m -1.723743,-5.55178 c 1.952634,-0.92659 1.888042,-3.78496 -0.104178,-4.61016 -1.0172,-0.42134 -2.004145,-0.17498 -2.818289,0.70349 -1.104451,1.19173 -0.67154,3.30149 0.809887,3.94695 1.027932,0.44787 1.086218,0.44676 2.11258,-0.0403 z m 65.516369,1.76024 c -2.160384,-0.0906 -3.853286,-0.27474 -3.903318,-0.42457 -0.04859,-0.14552 -0.678937,-1.15204 -1.400763,-2.2367 -0.721828,-1.08467 -1.258168,-2.02637 -1.191868,-2.09267 0.0663,-0.0663 0.82696,0.55327 1.690359,1.37681 1.007264,0.96077 1.795431,1.49735 2.199405,1.49735 0.80088,0 6.553443,-5.73458 6.553443,-6.53295 0,-0.62068 -0.781738,-1.40455 -1.400717,-1.40455 -0.238154,0 -1.466527,0.90112 -2.729717,2.0025 -2.038813,1.77764 -2.341158,1.95805 -2.692535,1.60667 -0.460947,-0.46095 -0.998474,-5.68315 -0.623565,-6.05806 0.296487,-0.29648 4.54795,-0.70966 7.397782,-0.71894 2.096723,-0.007 3.122121,0.25088 3.550431,0.89233 0.106913,0.16012 0.19621,2.74322 0.198437,5.74022 0.0038,5.12982 -0.02719,5.47737 -0.529217,5.9317 -0.636444,0.57597 -1.791393,0.64426 -7.118157,0.42086 z M 8.8446449,285.01643 c -0.9548688,-0.29151 -2.84638,-1.287 -3.0396762,-1.59976 -0.090839,-0.14698 0.1441079,-0.40815 0.5221053,-0.58038 0.5789166,-0.26377 0.8743751,-0.22223 1.8740807,0.26346 1.6538115,0.80349 3.3808293,0.77373 4.2273923,-0.0728 0.357187,-0.35719 0.649431,-0.84127 0.649431,-1.07573 0,-1.16919 -0.870215,-1.71135 -4.0543853,-2.52594 -2.3484486,-0.60079 -3.474632,-2.41908 -2.608813,-4.21207 1.001416,-2.0738 3.7258093,-2.7514 6.1308953,-1.52485 1.342203,0.6845 1.576596,1.10407 0.837707,1.49951 -0.399238,0.21366 -0.815284,0.14816 -1.785797,-0.28114 -1.548493,-0.68497 -2.8254444,-0.46261 -3.6391423,0.63371 l -0.5400348,0.72761 0.5419453,0.72587 c 0.405539,0.54318 1.0481648,0.86651 2.5531678,1.28461 2.235668,0.62107 3.187448,1.14482 3.649561,2.00829 0.445572,0.83256 0.381596,2.46925 -0.126852,3.24524 -0.900669,1.3746 -3.302126,2.06123 -5.1915851,1.4844 z m 17.8377951,0.005 c -0.30291,-0.13045 -0.868457,-0.61476 -1.25677,-1.07624 -0.666809,-0.79246 -0.706025,-0.99327 -0.706025,-3.61529 0,-2.72772 0.0104,-2.77475 0.595313,-2.69168 0.557598,0.0792 0.603693,0.24111 0.727604,2.55582 0.123279,2.30291 0.182867,2.51471 0.87465,3.10885 0.829149,0.71212 1.272037,0.78104 2.119307,0.32978 1.015179,-0.54068 1.222247,-1.07499 1.230962,-3.17629 0.0098,-2.35565 0.15259,-2.86591 0.802165,-2.86591 0.628469,0 0.79404,0.51599 0.792274,2.46904 -0.003,3.32123 -1.068113,4.94028 -3.359592,5.10685 -0.698028,0.0507 -1.516977,-0.0145 -1.819888,-0.14493 z m 8.488247,-0.0661 c -2.708182,-1.49416 -3.188362,-4.5063 -1.049014,-6.58041 0.890495,-0.86335 1.041087,-0.91365 2.584799,-0.86341 0.901568,0.0293 2.109052,0.0601 2.683296,0.0683 0.574243,0.008 1.137967,0.16284 1.25272,0.34353 0.11475,0.18069 0.210463,1.84657 0.21269,3.70196 0.0037,3.03948 -0.04179,3.37304 -0.45897,3.36939 -0.254661,-0.002 -0.627935,-0.1085 -0.829498,-0.23615 -0.225141,-0.14258 -0.706551,-0.09 -1.248272,0.13634 -1.04966,0.43858 -2.414818,0.46477 -3.147751,0.0604 z m 2.783422,-1.41449 c 2.811892,-1.45409 0.784749,-5.83147 -2.139577,-4.62017 -1.499952,0.6213 -2.005568,2.54246 -1.004175,3.81552 0.933973,1.18736 1.917083,1.43899 3.143752,0.80465 z m 4.525077,1.38457 c -0.392478,-0.39248 -0.413692,-12.70803 -0.02315,-13.43777 0.150641,-0.28147 0.507828,-0.51177 0.79375,-0.51177 0.490334,0 0.519859,0.1971 0.519859,3.47044 v 3.47044 l 0.595312,-0.19885 c 0.327422,-0.10936 1.190625,-0.25116 1.91823,-0.31509 1.071782,-0.0942 1.498711,0.002 2.248958,0.50399 2.42252,1.62255 2.422589,5.10772 1.35e-4,6.76126 -0.973108,0.66423 -2.711395,0.79526 -3.824145,0.28826 -0.491297,-0.22385 -0.844349,-0.2294 -1.302909,-0.0205 -0.456631,0.20805 -0.710403,0.20519 -0.926041,-0.0104 z m 4.673102,-1.26934 c 1.415849,-0.49356 2.100152,-2.33848 1.372016,-3.69902 -0.407337,-0.76111 -1.759895,-1.36883 -2.624077,-1.17903 -2.40729,0.52873 -2.69566,3.97713 -0.410789,4.91231 0.711941,0.29139 0.729752,0.29102 1.66285,-0.0343 z m 5.83896,1.07414 c -1.033965,-0.54628 -2.077852,-2.28609 -2.077852,-3.46306 0,-1.10734 1.112724,-2.93412 2.116667,-3.47496 1.391949,-0.74987 3.459967,-0.53015 4.536358,0.48198 1.702514,1.60086 1.932178,3.7976 0.566693,5.42039 -1.353133,1.6081 -3.311713,2.00259 -5.141866,1.03565 z m 3.071022,-1.19938 c 1.951297,-0.92595 1.930067,-3.55654 -0.03623,-4.48961 -1.706301,-0.80969 -3.535299,0.39183 -3.516728,2.31024 0.0099,1.02716 0.420484,1.63658 1.471848,2.18486 0.954217,0.49762 1.021249,0.49745 2.081112,-0.005 z m 5.75677,1.29252 c -1.889781,-0.93144 -2.711617,-3.53152 -1.700768,-5.38081 1.997289,-3.65394 7.461896,-2.29759 7.461896,1.85208 0,2.99293 -3.053546,4.86324 -5.761128,3.52873 z m 3.712586,-1.95485 c 0.922348,-0.99952 0.942607,-2.07151 0.05899,-3.12163 -0.846087,-1.00551 -1.942846,-1.26627 -3.008403,-0.71525 -0.963567,0.49828 -1.350071,1.14614 -1.350071,2.263 0,1.14744 0.425104,1.83071 1.409896,2.26614 1.103969,0.48812 1.997983,0.27394 2.889584,-0.69226 z"
         id="path832"
         inkscape:connector-curvature="0" />
      <path
         style="fill:#5d5d5d;stroke-width:0.26458335"
         d="m 22.067263,289.08309 c -0.141919,-0.37328 -0.258034,-1.51826 -0.258034,-2.54441 0,-1.81258 -0.01695,-1.86051 -0.595313,-1.68295 -2.567384,0.78819 -4.40184,0.2085 -5.417364,-1.71188 -0.758412,-1.43418 -0.758412,-2.26332 0,-3.69749 0.820784,-1.55213 2.030656,-2.19287 3.763718,-1.99325 0.727604,0.0838 1.735484,0.15579 2.239733,0.15995 1.598634,0.0132 1.596726,0.006 1.596726,6.36027 0,5.63564 -0.01414,5.78844 -0.535716,5.78844 -0.331603,0 -0.634028,-0.25859 -0.79375,-0.67868 z m -1.723743,-5.55178 c 1.952634,-0.92659 1.888042,-3.78496 -0.104178,-4.61016 -1.0172,-0.42134 -2.004145,-0.17498 -2.818289,0.70349 -1.104451,1.19173 -0.67154,3.30149 0.809887,3.94695 1.027932,0.44787 1.086218,0.44676 2.11258,-0.0403 z m -11.4988751,1.48512 c -0.9548688,-0.29151 -2.84638,-1.287 -3.0396762,-1.59976 -0.090839,-0.14698 0.1441079,-0.40815 0.5221053,-0.58038 0.5789166,-0.26377 0.8743751,-0.22223 1.8740807,0.26346 1.6538115,0.80349 3.3808293,0.77373 4.2273923,-0.0728 0.357187,-0.35719 0.649431,-0.84127 0.649431,-1.07573 0,-1.16919 -0.870215,-1.71135 -4.0543853,-2.52594 -2.3484486,-0.60079 -3.474632,-2.41908 -2.608813,-4.21207 1.001416,-2.0738 3.7258093,-2.7514 6.1308953,-1.52485 1.342203,0.6845 1.576596,1.10407 0.837707,1.49951 -0.399238,0.21366 -0.815284,0.14816 -1.785797,-0.28114 -1.548493,-0.68497 -2.8254444,-0.46261 -3.6391423,0.63371 l -0.5400348,0.72761 0.5419453,0.72587 c 0.405539,0.54318 1.0481648,0.86651 2.5531678,1.28461 2.235668,0.62107 3.187448,1.14482 3.649561,2.00829 0.445572,0.83256 0.381596,2.46925 -0.126852,3.24524 -0.900669,1.3746 -3.302126,2.06123 -5.1915851,1.4844 z m 17.8377951,0.005 c -0.30291,-0.13045 -0.868457,-0.61476 -1.25677,-1.07624 -0.666809,-0.79246 -0.706025,-0.99327 -0.706025,-3.61529 0,-2.72772 0.0104,-2.77475 0.595313,-2.69168 0.557598,0.0792 0.603693,0.24111 0.727604,2.55582 0.123279,2.30291 0.182867,2.51471 0.87465,3.10885 0.829149,0.71212 1.272037,0.78104 2.119307,0.32978 1.015179,-0.54068 1.222247,-1.07499 1.230962,-3.17629 0.0098,-2.35565 0.15259,-2.86591 0.802165,-2.86591 0.628469,0 0.79404,0.51599 0.792274,2.46904 -0.003,3.32123 -1.068113,4.94028 -3.359592,5.10685 -0.698028,0.0507 -1.516977,-0.0145 -1.819888,-0.14493 z m 8.488247,-0.0661 c -2.708182,-1.49416 -3.188362,-4.5063 -1.049014,-6.58041 0.890495,-0.86335 1.041087,-0.91365 2.584799,-0.86341 0.901568,0.0293 2.109052,0.0601 2.683296,0.0683 0.574243,0.008 1.137967,0.16284 1.25272,0.34353 0.11475,0.18069 0.210463,1.84657 0.21269,3.70196 0.0037,3.03948 -0.04179,3.37304 -0.45897,3.36939 -0.254661,-0.002 -0.627935,-0.1085 -0.829498,-0.23615 -0.225141,-0.14258 -0.706551,-0.09 -1.248272,0.13634 -1.04966,0.43858 -2.414818,0.46477 -3.147751,0.0604 z m 2.783422,-1.41449 c 2.811892,-1.45409 0.784749,-5.83147 -2.139577,-4.62017 -1.499952,0.6213 -2.005568,2.54246 -1.004175,3.81552 0.933973,1.18736 1.917083,1.43899 3.143752,0.80465 z m 4.525077,1.38457 c -0.392478,-0.39248 -0.413692,-12.70803 -0.02315,-13.43777 0.150641,-0.28147 0.507828,-0.51177 0.79375,-0.51177 0.490334,0 0.519859,0.1971 0.519859,3.47044 v 3.47044 l 0.595312,-0.19885 c 0.327422,-0.10936 1.190625,-0.25116 1.91823,-0.31509 1.071782,-0.0942 1.498711,0.002 2.248958,0.50399 2.42252,1.62255 2.422589,5.10772 1.35e-4,6.76126 -0.973108,0.66423 -2.711395,0.79526 -3.824145,0.28826 -0.491297,-0.22385 -0.844349,-0.2294 -1.302909,-0.0205 -0.456631,0.20805 -0.710403,0.20519 -0.926041,-0.0104 z m 4.673102,-1.26934 c 1.415849,-0.49356 2.100152,-2.33848 1.372016,-3.69902 -0.407337,-0.76111 -1.759895,-1.36883 -2.624077,-1.17903 -2.40729,0.52873 -2.69566,3.97713 -0.410789,4.91231 0.711941,0.29139 0.729752,0.29102 1.66285,-0.0343 z m 5.83896,1.07414 c -1.033965,-0.54628 -2.077852,-2.28609 -2.077852,-3.46306 0,-1.10734 1.112724,-2.93412 2.116667,-3.47496 1.391949,-0.74987 3.459967,-0.53015 4.536358,0.48198 1.702514,1.60086 1.932178,3.7976 0.566693,5.42039 -1.353133,1.6081 -3.311713,2.00259 -5.141866,1.03565 z m 3.071022,-1.19938 c 1.951297,-0.92595 1.930067,-3.55654 -0.03623,-4.48961 -1.706301,-0.80969 -3.535299,0.39183 -3.516728,2.31024 0.0099,1.02716 0.420484,1.63658 1.471848,2.18486 0.954217,0.49762 1.021249,0.49745 2.081112,-0.005 z m 5.75677,1.29252 c -1.889781,-0.93144 -2.711617,-3.53152 -1.700768,-5.38081 1.997289,-3.65394 7.461896,-2.29759 7.461896,1.85208 0,2.99293 -3.053546,4.86324 -5.761128,3.52873 z m 3.712586,-1.95485 c 0.922348,-0.99952 0.942607,-2.07151 0.05899,-3.12163 -0.846087,-1.00551 -1.942846,-1.26627 -3.008403,-0.71525 -0.963567,0.49828 -1.350071,1.14614 -1.350071,2.263 0,1.14744 0.425104,1.83071 1.409896,2.26614 1.103969,0.48812 1.997983,0.27394 2.889584,-0.69226 z"
         id="path830"
         inkscape:connector-curvature="0" />
      <path
         style="fill:#202020;stroke-width:0.26458335"
         d="m 22.340023,289.10459 c -0.146416,-0.3851 -0.266211,-1.59892 -0.266211,-2.69737 v -1.99718 l -0.859896,0.17941 c -2.859262,0.59656 -4.074587,0.2818 -5.129735,-1.32856 -0.607476,-0.92712 -0.607476,-3.00446 0,-3.93158 0.828732,-1.26481 1.976793,-1.79108 3.476089,-1.59345 0.727604,0.0959 1.761414,0.17444 2.297355,0.17453 0.585405,9e-5 1.030507,0.14627 1.114876,0.36613 0.285278,0.74342 0.208659,11.33662 -0.0827,11.43374 -0.155963,0.052 -0.403364,-0.22056 -0.54978,-0.60567 z m -1.856633,-5.29444 c 1.049314,-0.54262 1.590422,-1.39831 1.590422,-2.51505 0,-2.60917 -3.208486,-3.80789 -4.878843,-1.82279 -1.179039,1.40121 -0.859881,3.24868 0.728542,4.21721 1.013791,0.61815 1.54901,0.64337 2.559879,0.12063 z m -11.640458,0.94191 c -0.3647443,-0.11095 -1.0791193,-0.42315 -1.5875001,-0.69378 -0.5083808,-0.27062 -1.0136256,-0.49703 -1.1227663,-0.50313 -0.1091406,-0.006 -0.2017109,-0.12269 -0.2057119,-0.25909 -0.013454,-0.45868 0.9242324,-0.4064 2.17299,0.12116 0.6818206,0.28804 1.7923076,0.52371 2.4677483,0.52371 1.004568,0 1.368831,-0.14075 2.001472,-0.77339 0.425369,-0.42537 0.773398,-1.00463 0.773398,-1.28724 0,-0.84377 -1.016438,-1.87712 -2.130853,-2.16632 -0.574281,-0.14903 -1.5392111,-0.39968 -2.1442894,-0.557 -1.582509,-0.41146 -2.6040248,-1.52277 -2.6040248,-2.83293 0,-1.98776 1.5813653,-3.12025 4.0689452,-2.91396 1.674864,0.13889 3.523235,1.11496 2.705572,1.42872 -0.274928,0.1055 -1.064151,-0.0192 -1.802889,-0.28483 -1.7301584,-0.62216 -3.1730066,-0.25545 -3.8052217,0.96712 -0.746541,1.44365 0.2550478,2.56846 2.6791947,3.0088 1.6698,0.30332 2.968934,0.90736 3.414711,1.5877 0.486741,0.74286 0.536578,2.20343 0.107331,3.14552 -0.589723,1.2943 -3.132621,2.05335 -4.988106,1.48894 z m 17.665977,-0.16697 c -1.169437,-0.63453 -1.52468,-1.64974 -1.52468,-4.35723 0,-1.81496 0.08232,-2.38928 0.330729,-2.30731 0.217697,0.0718 0.375942,0.9158 0.463021,2.46944 0.07276,1.29818 0.229138,2.50999 0.347507,2.69293 0.404966,0.62587 1.784002,1.16138 2.554786,0.99209 1.356484,-0.29793 1.714357,-0.99922 1.860207,-3.64527 0.08739,-1.58554 0.244533,-2.4371 0.463021,-2.50919 0.528849,-0.1745 0.455193,4.93119 -0.08221,5.69844 -0.90834,1.29684 -2.970642,1.74838 -4.412384,0.9661 z m 8.538488,-0.0492 c -2.453638,-1.23776 -2.566093,-4.95859 -0.194593,-6.43861 0.668922,-0.41746 1.125249,-0.49699 2.169967,-0.37817 0.727604,0.0828 1.799166,0.17708 2.38125,0.20961 l 1.058333,0.0591 0.07405,3.37344 c 0.05855,2.66754 5.29e-4,3.37343 -0.277813,3.37343 -0.193527,0 -0.487791,-0.13592 -0.653923,-0.30205 -0.226353,-0.22636 -0.531458,-0.1932 -1.217382,0.13229 -1.176801,0.55843 -2.192793,0.54958 -3.339891,-0.0291 z m 2.898494,-0.72569 c 1.738734,-0.89913 2.143716,-2.95128 0.862817,-4.37215 -1.010245,-1.12064 -2.289619,-1.29239 -3.505729,-0.47064 -1.818783,1.22899 -1.628878,3.99187 0.332994,4.84465 1.101003,0.47858 1.381286,0.47836 2.309918,-0.002 z m 4.612479,0.83383 c -0.0743,-0.19363 -0.100057,-3.3183 -0.05723,-6.9437 0.07514,-6.35974 0.09649,-6.59432 0.607045,-6.66789 0.509214,-0.0734 0.525835,0.05 0.44079,3.27183 -0.05081,1.92482 0.02008,3.45655 0.166764,3.60323 0.163801,0.1638 0.683964,0.10955 1.452962,-0.15153 3.305713,-1.12232 6.036573,2.09745 4.509099,5.31637 -0.243018,0.51211 -0.808565,1.15474 -1.256771,1.42806 -0.920928,0.56158 -2.699719,0.6535 -3.712896,0.19186 -0.509929,-0.23233 -0.837028,-0.23273 -1.344287,-0.002 -0.53046,0.2417 -0.698577,0.23196 -0.805479,-0.0466 z M 48.466,283.0048 c 1.237372,-1.41521 0.516374,-3.72668 -1.355087,-4.34432 -2.586495,-0.85362 -4.604782,2.47746 -2.703494,4.46198 0.41692,0.43517 1.009525,0.83186 1.316903,0.88153 0.93183,0.15058 2.112658,-0.27976 2.741678,-0.99919 z m 4.644584,1.47694 c -1.227323,-0.74834 -1.769785,-1.72509 -1.769785,-3.18664 0,-2.12752 1.562523,-3.70219 3.673639,-3.70219 2.104194,0 3.673639,1.57526 3.673639,3.68725 0,2.89983 -3.127806,4.69525 -5.577493,3.20158 z m 2.936107,-0.64515 c 1.87393,-0.78298 2.373585,-3.01281 0.986023,-4.40038 -0.949571,-0.94957 -1.928024,-1.20791 -2.95842,-0.7811 -1.127731,0.46712 -1.837981,1.47833 -1.837981,2.6168 0,1.17981 0.592981,2.07702 1.687592,2.55342 1.043358,0.4541 1.062686,0.4542 2.122786,0.0113 z m 5.795143,0.64515 c -3.10287,-1.89194 -2.127287,-6.48181 1.450795,-6.82562 2.368891,-0.22762 4.022955,1.26857 4.022955,3.63898 0,2.90284 -3.03829,4.67164 -5.47375,3.18664 z m 2.953112,-0.65225 c 0.930707,-0.38888 1.728867,-1.55892 1.728867,-2.53439 0,-1.63769 -1.856324,-3.12587 -3.45984,-2.77368 -1.843386,0.40488 -2.719395,2.96866 -1.530699,4.47984 0.933924,1.18729 1.847255,1.41921 3.261672,0.82823 z"
         id="path828"
         inkscape:connector-curvature="0" />
    </g>
  </g>
</svg>
